<svg xmlns="http://www.w3.org/2000/svg" xmlns:xlink="http://www.w3.org/1999/xlink" version="1.1" id="Layer_1" x="0px" y="0px" width="88.4955752212px" height="100px" viewBox="0 0 100 113" enable-background="new 0 0 100 113" xml:space="preserve">
<g>
	<path fill="white" d="M89,108.525v-5.273c5-2.293,11-8.848,11-16.393V54.89l-1.666-37.677C98.334,7.696,90.443,0,81.408,0H17.37   C8.337,0,1.059,7.696,1.059,17.16L0,54.938v31.921c0,7.545,4,14.1,11,16.393v5.273c0,2.805,2.437,4.475,5.241,4.475h10.133   c2.805,0,5.626-1.67,5.626-4.475V104h35v4.525c0,2.805,2.602,4.475,5.403,4.475h10.136C85.344,113,89,111.33,89,108.525z M19,8h62   v5H19V8z M8.676,77l1.109-58h79.211l1.107,58H8.676z"/>
</g>
</svg>
