<?xml version="1.0" encoding="UTF-8" standalone="no"?>
<!-- Created with Inkscape (http://www.inkscape.org/) -->

<svg
   xmlns:dc="http://purl.org/dc/elements/1.1/"
   xmlns:cc="http://creativecommons.org/ns#"
   xmlns:rdf="http://www.w3.org/1999/02/22-rdf-syntax-ns#"
   xmlns:svg="http://www.w3.org/2000/svg"
   xmlns="http://www.w3.org/2000/svg"
   xmlns:sodipodi="http://sodipodi.sourceforge.net/DTD/sodipodi-0.dtd"
   xmlns:inkscape="http://www.inkscape.org/namespaces/inkscape"
   width="148"
   height="116"
   id="svg5017"
   version="1.1"
   inkscape:version="0.48.4 r9939"
   sodipodi:docname="Nouveau document 5">
  <defs
     id="defs5019">
    <filter
       inkscape:collect="always"
       id="filter3782"
       x="-0.19717313"
       width="1.3943464"
       y="-0.3943463"
       height="1.7886926"
       color-interpolation-filters="sRGB">
      <feGaussianBlur
         inkscape:collect="always"
         stdDeviation="16.431095"
         id="feGaussianBlur3784" />
    </filter>
  </defs>
  <sodipodi:namedview
     id="base"
     pagecolor="#ffffff"
     bordercolor="#666666"
     borderopacity="1.0"
     inkscape:pageopacity="0.0"
     inkscape:pageshadow="2"
     inkscape:zoom="1.979899"
     inkscape:cx="-33.220047"
     inkscape:cy="64.94406"
     inkscape:document-units="px"
     inkscape:current-layer="layer1"
     showgrid="false"
     inkscape:window-width="1385"
     inkscape:window-height="848"
     inkscape:window-x="50"
     inkscape:window-y="24"
     inkscape:window-maximized="0" />
  <metadata
     id="metadata5022">
    <rdf:RDF>
      <cc:Work
         rdf:about="">
        <dc:format>image/svg+xml</dc:format>
        <dc:type
           rdf:resource="http://purl.org/dc/dcmitype/StillImage" />
        <dc:title></dc:title>
      </cc:Work>
    </rdf:RDF>
  </metadata>
  <g
     inkscape:label="Calque 1"
     inkscape:groupmode="layer"
     id="layer1"
     transform="translate(0,-936.36218)">
    <rect
       style="opacity:0.7;fill:none;stroke:#2e3436;stroke-width:2.29999995;stroke-linecap:round;stroke-linejoin:round;stroke-miterlimit:4;stroke-opacity:1;stroke-dasharray:none;filter:url(#filter3782)"
       id="rect3933"
       width="164.9467"
       height="132.62689"
       x="-8.5841818"
       y="928.32159" />
    <g
       id="g5114"
       transform="matrix(0.38933805,0,0,0.38933805,22.219163,949.47353)">
      <path
         id="path5116"
         d="m 130.27832,2.5 c -44.678711,0 -80.897949,36.219238 -80.897949,80.898437 0,34.679203 21.827637,64.251463 52.490239,75.754393 l 18.64257,-49.71387 c -10.54004,-3.95361 -18.04345,-14.119624 -18.04345,-26.040523 0,-15.358398 12.45068,-27.809082 27.80859,-27.809082 15.3584,0 27.80957,12.450684 27.80957,27.809082 0,11.920899 -7.50391,22.086913 -18.04394,26.040523 l 18.64257,49.71387 C 189.34863,147.6499 211.17676,118.07764 211.17676,83.398437 211.17676,38.719238 174.95801,2.5 130.27832,2.5 z"
         inkscape:connector-curvature="0"
         style="fill:#40aa54;stroke:#20552a;stroke-width:5;stroke-linejoin:round" />
      <path
         id="path5118"
         d="m 209.49121,139.22607 v 14.95801 h -3.125 v -14.95801 h -5.12695 v -2.38769 h 13.34277 v 2.38769 h -5.09082 z"
         inkscape:connector-curvature="0"
         style="fill:#20552a" />
      <path
         id="path5120"
         d="m 234.05469,145.62354 c -0.0342,-0.13184 -0.0918,-0.50489 -0.16992,-1.12012 -0.0703,-0.5 -0.13282,-0.91699 -0.18457,-1.25 -0.0791,0.39453 -0.19141,0.79004 -0.33594,1.18554 -0.14453,0.39356 -0.32715,0.79883 -0.54688,1.20997 l -5.04004,9.2373 -5.04101,-9.43359 c -0.21094,-0.38672 -0.39258,-0.7627 -0.54688,-1.12598 -0.15332,-0.36523 -0.28711,-0.72266 -0.40136,-1.07324 -0.009,0.35937 -0.042,0.74023 -0.0986,1.13867 -0.0566,0.39941 -0.14258,0.81934 -0.25683,1.25684 l -2.06543,8.53515 h -2.88282 l 4.55274,-18.08301 5.68652,10.95704 c 0.0879,0.17578 0.22168,0.46386 0.40137,0.86328 0.18066,0.39941 0.39746,0.89843 0.65234,1.49511 0.1836,-0.5 0.47266,-1.13183 0.86719,-1.89746 0.10645,-0.21093 0.18457,-0.36914 0.23731,-0.47363 l 5.55468,-10.94434 4.66016,18.08301 h -2.90918 l -2.13281,-8.56054 z"
         inkscape:connector-curvature="0"
         style="fill:#20552a" />
      <path
         id="path5122"
         d="m 18.202148,199.01514 c 0,3.30273 -2.696777,6.0664 -6.067382,6.0664 -3.4379887,0 -6.0678715,-2.76367 -6.0678715,-6.0664 v -8.76368 c 0,-3.30273 2.6967773,-6.06738 6.0678715,-6.06738 3.370605,0 6.067382,2.76465 6.067382,6.06738 v 8.76368 z m 6.067383,0 v -8.76368 c 0,-6.80957 -4.786621,-11.46093 -12.134765,-11.46093 C 4.7866212,178.79053 0,183.37549 0,190.25146 v 8.76368 c 0,6.87597 4.7866211,11.45996 12.134766,11.45996 7.348144,0 12.134765,-4.58399 12.134765,-11.45996 z"
         inkscape:connector-curvature="0" />
      <path
         id="path5124"
         d="m 45.841309,198.34033 c 0,3.30371 -2.628907,6.06836 -6.067383,6.06836 -3.370606,0 -6.066895,-2.76465 -6.066895,-6.06836 v -7.41406 c 0,-3.30469 2.696289,-6.06934 6.066895,-6.06934 3.438476,0 6.067383,2.76465 6.067383,6.06934 v 7.41406 z m 6.067382,0 v -7.41406 c 0,-6.80859 -4.853515,-11.46191 -11.662597,-11.46191 -3.977051,0 -5.864746,2.22558 -6.740723,2.22558 -0.270019,0 -0.472656,-0.27051 -0.472656,-0.74219 v -0.80761 c 0,-0.47168 -0.202149,-0.67578 -0.673828,-0.67578 h -4.044922 c -0.47168,0 -0.674317,0.2041 -0.674317,0.67578 v 44.15429 c 0,0.47266 0.202637,0.67578 0.674317,0.67578 h 4.71875 c 0.472656,0 0.674316,-0.20312 0.674316,-0.67578 v -15.97656 c 0,-0.47266 0.202149,-0.74121 0.539063,-0.74121 0.606933,0 2.629394,2.22461 6.539062,2.22461 6.27002,0 11.123535,-4.85352 11.123535,-11.46094 z"
         inkscape:connector-curvature="0" />
      <path
         id="path5126"
         d="M 71.863281,190.92627 H 61.077637 c -0.606934,0 -0.674805,-0.27051 -0.674805,-1.0127 0,-2.96484 2.831543,-5.72949 6.068359,-5.72949 3.167969,0 6.066895,2.69727 6.066895,5.59473 0,0.80957 -0.0669,1.14746 -0.674805,1.14746 z m 6.741211,4.04297 v -4.71778 c 0,-6.13378 -5.393066,-11.46093 -12.133301,-11.46093 -6.741699,0 -12.135254,5.32715 -12.135254,11.46093 v 8.76368 c 0,6.87597 4.786622,11.45996 12.135254,11.45996 3.572754,0 6.403809,-0.94434 8.42627,-2.83106 2.021973,-1.88769 2.831543,-3.64062 2.831543,-4.1123 0,-0.20215 -0.134766,-0.33692 -0.404785,-0.47168 l -4.247559,-2.15723 c -0.133301,-0.0674 -0.269531,-0.13476 -0.403809,-0.13476 -0.404785,0 -1.011718,1.07812 -2.495117,2.83203 -0.741699,0.875 -2.088867,1.48144 -3.706543,1.48144 -3.438476,0 -6.068359,-2.76367 -6.068359,-6.0664 v -2.69629 c 0,-0.47168 0.202637,-0.67481 0.674805,-0.67481 h 16.853515 c 0.47168,0 0.67334,-0.20312 0.67334,-0.6748 z"
         inkscape:connector-curvature="0" />
      <path
         id="path5128"
         d="m 105.09912,209.80127 h -4.71826 c -0.47168,0 -0.673829,-0.20215 -0.673829,-0.67383 v -18.20117 c 0,-3.30469 -2.629882,-6.06934 -6.067871,-6.06934 -3.370605,0 -6.067871,2.76465 -6.067871,6.06934 v 18.20117 c 0,0.47168 -0.20166,0.67383 -0.67334,0.67383 h -4.719238 c -0.472168,0 -0.674805,-0.20215 -0.674805,-0.67383 v -28.9873 c 0,-0.47168 0.202637,-0.67578 0.674805,-0.67578 h 4.04541 c 0.472168,0 0.673828,0.2041 0.673828,0.67578 v 0.80761 c 0,0.47168 0.201661,0.74219 0.47168,0.74219 0.875488,0 2.763672,-2.22558 6.741211,-2.22558 6.80957,0 11.66309,4.65332 11.66309,11.46191 v 18.20117 c 0,0.47168 -0.20313,0.67383 -0.67481,0.67383 z"
         inkscape:connector-curvature="0" />
      <path
         id="path5130"
         d="m 122.62646,187.35303 c 0,2.76367 2.09034,4.04492 6.7417,5.05566 7.75293,1.68555 12.06739,2.69629 12.06739,8.35938 0,5.72949 -4.18067,9.70703 -10.71924,9.70703 h -2.09033 c -6.26905,0 -10.38184,-3.77539 -10.38184,-5.86524 0,-0.20117 0.13623,-0.33593 0.47315,-0.47168 l 2.62841,-1.28027 c 0.13526,-0.0684 0.26905,-0.0684 0.33692,-0.0684 0.20215,0 0.33838,0.13477 0.54004,0.33789 1.75244,1.9541 3.10058,3.77539 6.40332,3.77539 h 2.09033 c 3.77588,0 6.20264,-2.15722 6.20264,-4.92187 0,-2.49414 -2.08985,-3.97754 -6.60743,-4.9209 -7.81884,-1.61914 -12.06738,-2.42676 -12.06738,-8.36035 0,-5.52735 4.11279,-9.37012 10.38184,-9.37012 h 2.09033 c 6.13525,0 10.31396,3.70898 10.31396,5.73145 0,0.20214 -0.20215,0.33593 -0.47168,0.47167 l -2.5625,1.28028 c -0.13281,0.0684 -0.20117,0.0684 -0.26953,0.0684 -0.20215,0 -0.33496,-0.13574 -0.53906,-0.33887 -1.88672,-2.02148 -3.43652,-3.63867 -6.47119,-3.63867 h -2.09033 c -3.90918,0 -5.99952,1.68555 -5.99952,4.44922 z"
         inkscape:connector-curvature="0" />
      <path
         id="path5132"
         d="m 163.21094,199.41846 c 0,3.91113 -3.16992,7.21484 -7.21289,7.21484 -4.04493,0 -7.14746,-3.30371 -7.14746,-7.21484 v -9.09961 c 0,-3.97754 3.03418,-7.14649 7.14746,-7.14649 4.04297,0 7.21289,3.30371 7.21289,7.14649 v 9.09961 z m 4.58301,0 v -9.09961 c 0,-6.54004 -4.6504,-10.98926 -11.7959,-10.98926 -7.14746,0 -11.66407,4.31445 -11.66407,10.98926 v 9.09961 c 0,6.67578 4.51661,11.05664 11.66407,11.05664 7.1455,0 11.7959,-4.44922 11.7959,-11.05664 z"
         inkscape:connector-curvature="0" />
      <path
         id="path5134"
         d="m 194.08691,209.80127 h -2.49414 c -0.47168,0 -0.6748,-0.20215 -0.6748,-0.67383 v -2.89941 c 0,-0.47168 -0.26856,-0.74024 -0.53906,-0.74024 -0.60645,0 -1.2793,1.07813 -2.49317,2.292 -1.34863,1.27929 -3.37109,2.02148 -5.5957,2.02148 -6.13477,0 -10.98926,-4.5166 -10.98926,-11.05566 v -18.06739 c 0,-0.47168 0.20313,-0.67383 0.67481,-0.67383 h 3.16796 c 0.47266,0 0.67383,0.20215 0.67383,0.67383 v 18.06739 c 0,3.91015 3.16992,7.21386 7.14746,7.21386 4.17871,0 7.28028,-3.23633 7.28028,-7.21386 v -18.06739 c 0,-0.47168 0.20117,-0.67383 0.67285,-0.67383 h 3.16894 c 0.47168,0 0.67383,0.20215 0.67383,0.67383 v 28.44922 c 0,0.47168 -0.20215,0.67383 -0.67383,0.67383 z"
         inkscape:connector-curvature="0" />
      <path
         id="path5136"
         d="m 215.18652,184.79053 c -0.53808,0 -1.41504,-0.20117 -2.56152,-0.20117 -4.11133,0 -7.14551,3.0996 -7.14551,7.07714 v 17.46094 c 0,0.47168 -0.20117,0.67383 -0.67383,0.67383 h -3.2373 c -0.47168,0 -0.67285,-0.20215 -0.67285,-0.67383 v -28.44922 c 0,-0.47168 0.20117,-0.67383 0.67285,-0.67383 h 2.49609 c 0.47168,0 0.67383,0.20215 0.67383,0.67383 v 3.3711 c 0,0.47168 0.26953,0.74121 0.54004,0.74121 0.73926,0 1.81934,-1.68555 4.24609,-3.64063 0.74122,-0.60644 2.15625,-1.14551 3.10059,-1.14551 h 2.49512 c 0.47265,0 0.67383,0.20215 0.67383,0.67383 v 3.43946 c 0,0.53808 -0.13575,0.67285 -0.60743,0.67285 z"
         inkscape:connector-curvature="0" />
      <path
         id="path5138"
         d="m 237.77051,204.54346 c 0,2.15625 -4.11231,5.93164 -10.44824,5.93164 -7.14649,0 -11.66407,-4.38086 -11.66407,-11.05664 v -9.09961 c 0,-6.67481 4.51758,-10.98926 11.66407,-10.98926 6.26855,0 10.5166,3.57422 10.5166,5.79785 0,0.20117 -0.20313,0.40527 -0.47168,0.54004 l -2.83203,1.41504 c -0.13477,0.0674 -0.20215,0.0674 -0.27051,0.0674 -0.20117,0 -0.33594,-0.0674 -0.53809,-0.26855 -2.02246,-1.88867 -3.37109,-3.70899 -6.40429,-3.70899 -4.11329,0 -7.14649,3.16895 -7.14649,7.14649 v 9.09961 c 0,3.91113 3.10156,7.21484 7.14649,7.21484 1.61816,0 3.23535,-0.67383 4.44921,-1.82129 1.41504,-1.34765 2.02149,-2.29101 2.42579,-2.29101 0.0674,0 0.20312,0 0.33789,0.0674 l 2.83203,1.41504 c 0.33691,0.13476 0.40332,0.27051 0.40332,0.54004 z"
         inkscape:connector-curvature="0" />
      <path
         id="path5140"
         d="m 259.07324,191.26221 c 0,0.47168 -0.20117,0.6748 -0.67383,0.6748 h -13.00976 c -0.47266,0 -0.67383,-0.20312 -0.67383,-0.6748 v -0.94336 c 0,-3.97754 3.0332,-7.14649 7.14453,-7.14649 4.0459,0 7.21289,3.30371 7.21289,7.14649 v 0.94336 z m 4.58496,3.16894 v -4.1123 c 0,-5.79785 -5.25879,-10.98926 -11.79785,-10.98926 -3.4375,0 -6.26855,1.21387 -8.49414,3.57422 -2.02148,2.15723 -3.16797,4.9209 -3.16797,7.41504 v 9.09961 c 0,6.67578 4.51758,11.05664 11.66211,11.05664 6.33789,0 10.4502,-3.77539 10.4502,-5.93164 0,-0.26953 -0.0674,-0.40528 -0.4043,-0.54004 l -2.83301,-1.41504 c -0.13379,-0.0674 -0.26758,-0.0674 -0.33594,-0.0674 -0.40429,0 -1.01074,0.94336 -2.42773,2.29101 -1.21191,1.14746 -2.83105,1.82129 -4.44922,1.82129 -4.04394,0 -7.14453,-3.30371 -7.14453,-7.21484 v -3.63867 c 0,-0.47168 0.20117,-0.67481 0.67383,-0.67481 h 17.59472 c 0.47168,0 0.67383,-0.20215 0.67383,-0.67383 z"
         inkscape:connector-curvature="0" />
    </g>
  </g>
</svg>
